<svg width="38" height="38" viewBox="0 0 38 38" fill="none" xmlns="http://www.w3.org/2000/svg">
<path fill-rule="evenodd" clip-rule="evenodd" d="M19.9722 5.08353C19.4004 4.63882 18.5998 4.63882 18.028 5.08353L3.77802 16.1669C3.08777 16.7037 2.96342 17.6985 3.50029 18.3887C4.03715 19.079 5.03192 19.2033 5.72217 18.6665L6.33339 18.1911V32.8333C6.33339 33.9379 7.22882 34.8333 8.33338 34.8333H29.6667C30.7713 34.8333 31.6667 33.9379 31.6667 32.8333V18.191L32.278 18.6665C32.9683 19.2033 33.963 19.079 34.4999 18.3887C35.0368 17.6985 34.9124 16.7037 34.2222 16.1669L19.9722 5.08353Z" fill="#1804FF"/>
<path d="M15.8334 24.75C15.8334 24.1977 16.2811 23.75 16.8334 23.75H21.1667C21.719 23.75 22.1667 24.1977 22.1667 24.75V31.6667H15.8334V24.75Z" fill="white"/>
</svg>
